<svg width="40" height="40" viewBox="0 0 40 40" fill="none" xmlns="http://www.w3.org/2000/svg">
<path d="M0 6.25C0 2.79822 2.79822 0 6.25 0H33.75C37.2018 0 40 2.79822 40 6.25V33.75C40 37.2018 37.2018 40 33.75 40H6.25C2.79822 40 0 37.2018 0 33.75V6.25Z" fill="#2A81DD"/>
<path d="M21.5447 14.5841C21.9718 14.1569 22.6643 14.1569 23.0915 14.5841L25.5221 17.0148C25.9493 17.4419 25.9493 18.1344 25.5221 18.5616L11.9324 32.1513C11.5053 32.5784 10.8128 32.5784 10.3856 32.1513L7.95495 29.7206C7.52782 29.2934 7.52782 28.6009 7.95495 28.1738L21.5447 14.5841Z" fill="white"/>
<path d="M22.0971 15.5784L24.5278 18.0091L21.7656 20.7713L19.335 18.3406L22.0971 15.5784Z" fill="#2A81DD"/>
<path d="M16.8326 13.4852C16.7706 13.5481 16.6905 13.5901 16.6035 13.6055C16.5165 13.6208 16.4269 13.6087 16.3471 13.5708L14.6946 12.7996L13.0421 13.5708C12.9621 13.6081 12.8727 13.6199 12.7858 13.6045C12.6989 13.5892 12.6189 13.5476 12.5565 13.4852C12.4942 13.4228 12.4525 13.3428 12.4372 13.2559C12.4219 13.1691 12.4337 13.0796 12.471 12.9997L13.2421 11.3472L12.471 9.69465C12.4337 9.61472 12.4219 9.52525 12.4372 9.43839C12.4525 9.35153 12.4942 9.27148 12.5565 9.20912C12.6189 9.14675 12.6989 9.10508 12.7858 9.08978C12.8727 9.07447 12.9621 9.08626 13.0421 9.12355L14.6946 9.89471L16.3471 9.12355C16.427 9.08626 16.5165 9.07447 16.6033 9.08978C16.6902 9.10508 16.7702 9.14675 16.8326 9.20911C16.895 9.27148 16.9366 9.35153 16.952 9.43839C16.9673 9.52525 16.9555 9.61472 16.9182 9.69465L16.147 11.3472L16.9182 12.9997C16.9561 13.0795 16.9682 13.1691 16.9529 13.2561C16.9375 13.3431 16.8955 13.4232 16.8326 13.4852Z" fill="white"/>
<path d="M30.9747 27.4064C30.9127 27.4693 30.8326 27.5113 30.7456 27.5266C30.6586 27.5419 30.569 27.5298 30.4892 27.4919L28.8367 26.7208L27.1842 27.4919C27.1043 27.5292 27.0148 27.541 26.9279 27.5257C26.8411 27.5104 26.761 27.4687 26.6987 27.4064C26.6363 27.344 26.5946 27.264 26.5793 27.1771C26.564 27.0902 26.5758 27.0008 26.6131 26.9208L27.3843 25.2683L26.6131 23.6158C26.5758 23.5359 26.564 23.4464 26.5793 23.3596C26.5946 23.2727 26.6363 23.1926 26.6987 23.1303C26.761 23.0679 26.8411 23.0262 26.9279 23.0109C27.0148 22.9956 27.1043 23.0074 27.1842 23.0447L28.8367 23.8159L30.4892 23.0447C30.5691 23.0074 30.6586 22.9956 30.7455 23.0109C30.8323 23.0262 30.9124 23.0679 30.9747 23.1303C31.0371 23.1926 31.0788 23.2727 31.0941 23.3596C31.1094 23.4464 31.0976 23.5359 31.0603 23.6158L30.2891 25.2683L31.0603 26.9208C31.0982 27.0006 31.1103 27.0903 31.095 27.1773C31.0797 27.2643 31.0376 27.3443 30.9747 27.4064Z" fill="white"/>
<path d="M31.0852 13.5957C31.0232 13.6586 30.9431 13.7006 30.8561 13.7159C30.7691 13.7313 30.6795 13.7191 30.5997 13.6813L28.9472 12.9101L27.2947 13.6813C27.2147 13.7185 27.1253 13.7303 27.0384 13.715C26.9516 13.6997 26.8715 13.6581 26.8091 13.5957C26.7468 13.5333 26.7051 13.4533 26.6898 13.3664C26.6745 13.2796 26.6863 13.1901 26.7236 13.1102L27.4947 11.4576L26.7236 9.80514C26.6863 9.72521 26.6745 9.63574 26.6898 9.54888C26.7051 9.46202 26.7468 9.38197 26.8091 9.3196C26.8715 9.25723 26.9516 9.21557 27.0384 9.20026C27.1253 9.18495 27.2147 9.19675 27.2947 9.23404L28.9472 10.0052L30.5997 9.23404C30.6796 9.19675 30.7691 9.18495 30.856 9.20026C30.9428 9.21557 31.0229 9.25723 31.0852 9.3196C31.1476 9.38197 31.1893 9.46201 31.2046 9.54888C31.2199 9.63574 31.2081 9.72521 31.1708 9.80514L30.3996 11.4576L31.1708 13.1102C31.2087 13.19 31.2208 13.2796 31.2055 13.3666C31.1901 13.4536 31.1481 13.5337 31.0852 13.5957Z" fill="white"/>
</svg>
